<?xml version="1.0" encoding="UTF-8" standalone="no"?>
<!DOCTYPE svg PUBLIC "-//W3C//DTD SVG 1.1//EN" "http://www.w3.org/Graphics/SVG/1.1/DTD/svg11.dtd">
<svg xmlns="http://www.w3.org/2000/svg" version="1.1" viewBox="0.00 0.00 1080.00 1080.00">
<g stroke-width="2.00" fill="none" stroke-linecap="butt">
<path stroke="#00ceca" vector-effect="non-scaling-stroke" d="
  M 563.77 151.35
  L 559.64 157.59
  A 1.91 1.89 -46.6 0 0 559.69 159.76
  Q 560.95 161.47 561.07 163.56
  A 1.45 1.42 -27.9 0 1 560.76 164.53
  C 556.75 169.62 561.56 169.30 560.50 173.84
  Q 559.65 177.45 560.69 181.07
  Q 560.83 181.57 560.69 182.06
  Q 559.49 186.13 560.53 190.25
  Q 560.66 190.74 560.53 191.23
  Q 559.52 195.03 560.33 198.87
  C 560.73 200.75 559.75 202.98 559.83 205.10
  Q 560.31 218.55 560.00 232.00
  C 559.94 234.37 560.64 236.10 560.15 238.64
  C 559.53 241.93 560.08 245.98 560.07 248.34
  Q 560.06 254.76 560.04 261.19
  C 560.03 262.67 560.65 263.50 560.37 265.09
  C 559.71 268.71 560.22 272.31 559.89 275.95
  C 559.60 279.14 560.20 282.20 560.00 285.24
  C 559.75 289.00 560.87 291.33 560.46 294.51
  C 559.90 298.74 560.02 302.71 560.01 306.96
  C 560.01 308.03 560.58 308.96 560.69 310.04
  C 560.86 311.61 559.71 313.04 559.09 314.52
  A 1.43 1.43 0.0 0 0 559.06 315.49
  C 559.90 317.94 562.57 320.72 559.35 322.96
  A 1.80 1.79 -38.0 0 0 559.02 325.62
  L 561.06 327.93
  A 1.19 1.17 -62.6 0 1 561.35 328.87
  C 561.03 331.17 558.18 332.90 559.41 335.28
  Q 562.38 341.08 561.60 346.59"
/>
<path stroke="#80e9e2" vector-effect="non-scaling-stroke" d="
  M 561.60 346.59
  Q 552.72 341.63 544.01 336.82
  C 541.34 335.35 539.92 335.77 537.47 337.19
  Q 511.26 352.40 484.74 367.64"
/>
<path stroke="#00d7bf" vector-effect="non-scaling-stroke" d="
  M 484.74 367.64
  Q 484.78 362.49 484.46 357.76
  C 484.32 355.71 485.60 352.56 485.41 349.92
  Q 485.31 348.58 485.29 347.25
  Q 484.71 306.11 485.00 264.97
  C 485.03 261.18 484.72 256.39 484.84 252.08
  C 485.11 242.72 485.01 234.36 484.89 225.49
  C 484.81 219.98 485.27 210.83 484.68 203.49
  C 484.40 200.00 484.96 196.23 484.49 192.48
  C 484.14 189.65 484.92 187.32 484.78 184.49
  Q 484.60 180.88 484.62 178.52
  Q 484.66 175.13 483.79 171.47"
/>
<path stroke="#80eddd" vector-effect="non-scaling-stroke" d="
  M 484.74 367.64
  L 412.80 409.21"
/>
<path stroke="#00e8ab" vector-effect="non-scaling-stroke" d="
  M 412.80 409.21
  L 413.00 401.92
  Q 413.02 401.40 412.66 401.04
  C 409.55 397.94 412.81 396.29 413.58 393.38
  A 0.97 0.96 -54.6 0 0 413.45 392.60
  L 411.37 389.47
  A 1.56 1.55 -33.4 0 1 411.82 387.31
  Q 413.66 386.13 413.17 383.90
  Q 413.07 383.46 412.75 383.16
  C 409.79 380.44 411.65 378.33 412.71 375.43
  A 1.18 1.18 0.0 0 0 412.61 374.42
  L 410.65 371.20
  A 1.60 1.60 0.0 0 1 411.01 369.12
  L 412.55 367.87
  A 1.47 1.44 73.7 0 0 413.08 366.88
  Q 413.26 364.81 411.80 363.47
  A 2.08 2.08 0.0 0 1 411.32 361.05
  Q 411.80 360.00 412.39 359.01
  C 414.23 355.89 412.01 355.32 411.70 352.69
  C 411.49 350.85 412.48 349.32 413.01 347.78
  Q 413.19 347.26 412.88 346.81
  Q 412.12 345.71 411.64 344.47
  C 410.17 340.72 414.35 338.88 410.79 334.60
  A 0.99 0.97 33.6 0 1 410.60 333.71
  Q 411.02 332.22 412.21 331.21
  A 2.56 2.56 0.0 0 0 412.44 327.51
  C 409.20 324.00 414.37 321.55 412.70 318.49
  Q 411.77 316.78 411.69 315.26
  C 411.56 312.50 414.85 311.06 411.60 308.00
  A 1.47 1.46 -70.9 0 1 411.15 307.07
  C 410.86 303.94 415.09 301.46 412.08 298.92
  Q 411.71 298.60 411.65 298.11
  Q 411.37 295.93 411.95 294.97
  Q 415.14 289.62 413.42 283.84
  C 412.93 282.20 411.74 280.63 410.86 279.01
  Q 410.61 278.54 410.80 278.05
  Q 411.35 276.67 412.59 275.82
  A 2.24 2.24 0.0 0 0 412.62 272.13
  Q 411.31 271.20 410.74 269.73
  Q 410.51 269.11 410.88 268.57
  L 413.57 264.69
  A 0.76 0.74 47.8 0 0 413.60 263.90
  Q 412.99 262.82 412.06 262.01
  Q 411.70 261.69 411.62 261.22
  Q 411.26 259.01 411.94 257.98
  C 415.60 252.46 414.41 247.81 410.99 242.57
  A 1.93 1.93 0.0 0 1 411.26 240.12
  L 413.41 238.03
  A 1.20 1.19 -42.7 0 0 413.48 236.39
  L 411.01 233.52
  A 1.92 1.91 52.3 0 1 411.37 230.69
  C 413.25 229.39 413.30 227.36 412.21 225.36
  Q 409.72 220.76 407.28 215.75"
/>
<path stroke="#00c3d6" vector-effect="non-scaling-stroke" d="
  M 634.70 192.10
  Q 634.50 197.34 634.10 202.20
  C 633.78 206.00 630.69 208.74 631.26 212.50
  Q 632.10 218.07 632.03 222.62
  C 631.96 227.32 634.89 230.60 634.99 234.82
  C 635.06 238.31 633.65 242.28 632.72 245.67
  C 631.30 250.86 631.77 256.44 632.01 261.74
  C 632.14 264.82 634.74 267.61 634.97 269.99
  C 635.40 274.29 631.83 276.12 631.81 280.30
  Q 631.77 288.37 631.85 296.45
  C 631.88 299.13 632.36 301.81 633.61 303.89
  Q 635.44 306.96 634.93 309.98
  Q 634.78 310.89 632.84 314.18
  Q 630.30 318.50 631.25 324.31
  Q 632.35 331.07 632.87 333.46
  Q 632.97 333.94 632.81 334.42
  C 632.19 336.17 631.78 337.48 631.90 339.47
  Q 632.22 344.45 631.10 352.51
  Q 630.44 357.19 631.71 364.13
  C 632.46 368.22 634.78 370.37 631.87 374.96
  A 1.24 1.23 -53.7 0 0 632.11 376.55
  L 634.15 378.32
  Q 634.60 378.70 634.20 379.14
  C 632.80 380.68 629.16 383.52 629.18 385.52"
/>
<path stroke="#80e4e7" vector-effect="non-scaling-stroke" d="
  M 629.18 385.52
  L 561.60 346.59"
/>
<path stroke="#80d3fc" vector-effect="non-scaling-stroke" d="
  M 950.33 646.72
  Q 946.87 645.38 944.81 644.19
  Q 883.78 609.04 822.63 573.92"
/>
<path stroke="#80daf4" vector-effect="non-scaling-stroke" d="
  M 822.63 573.92
  L 745.66 529.68"
/>
<path stroke="#80deee" vector-effect="non-scaling-stroke" d="
  M 745.66 529.68
  L 600.78 446.70"
/>
<path stroke="#80e9e2" vector-effect="non-scaling-stroke" d="
  M 600.78 446.70
  L 542.75 413.22
  A 3.56 3.54 -44.9 0 0 539.22 413.22
  L 443.47 468.45"
/>
<path stroke="#80eddd" vector-effect="non-scaling-stroke" d="
  M 443.47 468.45
  L 370.95 510.38"
/>
<path stroke="#80face" vector-effect="non-scaling-stroke" d="
  M 370.95 510.38
  L 133.27 646.89"
/>
<path stroke="#80face" vector-effect="non-scaling-stroke" d="
  M 412.80 409.21
  L 133.46 569.64"
/>
<path stroke="#00b9e3" vector-effect="non-scaling-stroke" d="
  M 780.26 275.92
  Q 778.85 276.97 778.82 278.25
  C 778.49 295.07 778.94 317.73 778.51 337.50
  Q 777.80 369.75 778.00 402.00
  C 778.12 421.93 777.17 441.93 777.27 461.82
  A 1.31 1.31 0.0 0 1 775.91 463.14
  Q 771.52 462.98 768.14 465.33"
/>
<path stroke="#80deee" vector-effect="non-scaling-stroke" d="
  M 768.14 465.33
  L 629.18 385.52"
/>
<path stroke="#80eddd" vector-effect="non-scaling-stroke" d="
  M 451.60 659.79
  L 376.06 703.33"
/>
<path stroke="#00e8ab" vector-effect="non-scaling-stroke" d="
  M 376.06 703.33
  Q 375.49 697.58 379.36 694.07
  A 1.54 1.54 0.0 0 0 379.04 691.56
  C 375.85 689.89 377.00 687.73 378.79 685.41
  Q 380.84 682.74 380.85 679.19
  Q 380.85 678.69 380.44 678.40
  Q 375.95 675.25 377.04 670.49
  Q 378.10 665.88 377.39 662.65
  C 376.72 659.67 377.13 659.21 378.93 657.08
  A 1.43 1.43 0.0 0 0 378.79 655.08
  Q 375.77 652.41 378.29 648.96
  C 380.01 646.60 377.95 645.56 377.73 643.57
  Q 377.49 641.30 378.72 639.43
  A 2.72 2.71 48.0 0 0 378.86 636.68
  L 377.13 633.40
  A 1.62 1.62 0.0 0 1 377.64 631.32
  C 380.62 629.23 378.09 627.29 377.42 625.01
  C 376.91 623.28 378.05 621.59 378.95 620.16
  A 1.58 1.57 36.6 0 0 378.64 618.13
  Q 374.94 614.96 378.64 611.79
  A 1.22 1.19 72.1 0 0 379.06 610.94
  Q 379.13 609.27 378.06 607.97
  A 1.28 1.26 -65.2 0 1 377.77 607.16
  C 377.74 602.38 378.43 596.77 374.62 593.06
  A 1.78 1.77 46.9 0 1 374.70 590.44
  C 378.26 587.40 376.17 586.24 374.49 583.30
  A 2.08 2.08 0.0 0 1 374.62 581.05
  L 379.16 574.88
  A 1.89 1.88 43.9 0 0 379.11 572.59
  Q 377.18 570.19 377.75 566.54
  Q 378.76 559.97 374.13 555.80
  A 1.15 1.15 0.0 0 1 374.05 554.16
  L 376.19 551.81
  A 2.07 2.06 46.4 0 0 376.25 549.11
  L 374.15 546.59
  A 1.72 1.71 -37.0 0 1 374.51 544.06
  L 377.17 542.28
  A 1.31 1.31 0.0 0 0 377.20 540.13
  L 374.04 537.87
  A 1.53 1.53 0.0 0 1 373.97 535.43
  Q 377.33 532.73 378.67 528.49
  C 379.45 525.99 375.84 521.00 374.17 518.92
  A 1.99 1.99 0.0 0 1 374.41 516.17
  Q 375.40 515.31 375.71 514.09
  A 0.63 0.62 -66.3 0 0 375.46 513.43
  L 370.95 510.38"
/>
<path stroke="#80d3fc" vector-effect="non-scaling-stroke" d="
  M 949.79 569.83
  L 844.01 508.98"
/>
<path stroke="#00aef0" vector-effect="non-scaling-stroke" d="
  M 822.63 573.92
  Q 820.77 576.83 818.07 576.11
  A 0.93 0.92 8.6 0 0 816.91 576.96
  Q 816.80 579.33 817.89 581.41
  A 2.46 2.44 43.6 0 1 817.95 583.55
  C 814.98 590.04 815.21 596.04 815.32 603.00
  C 815.38 606.55 816.78 607.46 818.28 609.89
  A 0.80 0.80 0.0 0 1 818.23 610.81
  Q 815.60 614.10 815.39 617.89
  Q 814.82 628.19 815.84 640.17
  C 816.05 642.59 818.27 646.62 817.27 648.76
  Q 815.30 653.00 815.30 658.25
  Q 815.32 703.50 815.19 748.75
  Q 815.18 753.89 818.46 757.27
  A 1.23 1.23 0.0 0 1 817.60 759.36
  C 814.94 759.40 809.25 758.81 808.62 762.32"
/>
<path stroke="#80daf4" vector-effect="non-scaling-stroke" d="
  M 808.62 762.32
  L 736.94 720.97"
/>
<path stroke="#00c8d1" vector-effect="non-scaling-stroke" d="
  M 600.78 446.70
  C 600.49 460.24 600.46 471.71 600.09 487.25
  C 599.87 496.28 600.15 505.41 599.77 514.33
  Q 599.47 521.55 599.40 526.99
  Q 598.95 563.92 598.97 611.43
  Q 598.97 613.16 598.59 614.45
  C 597.84 617.00 595.16 618.50 596.30 621.11
  C 596.72 622.06 597.80 622.51 598.43 623.36
  A 1.52 1.51 -33.6 0 1 597.98 625.57
  L 594.80 627.42
  A 1.31 1.31 0.0 0 0 594.60 629.54
  L 597.23 631.84
  Q 597.60 632.17 597.41 632.63
  Q 596.34 635.11 594.12 634.19
  Q 589.22 632.17 585.60 633.59"
/>
<path stroke="#80e9e2" vector-effect="non-scaling-stroke" d="
  M 585.60 633.59
  Q 564.89 621.92 544.22 609.87
  C 542.12 608.64 540.34 608.06 538.27 609.28
  Q 495.03 634.78 451.60 659.79"
/>
<path stroke="#00d7bf" vector-effect="non-scaling-stroke" d="
  M 451.60 659.79
  Q 451.03 639.63 451.91 619.57
  C 452.04 616.75 452.72 613.47 452.81 610.34
  C 452.91 607.07 450.62 604.51 450.56 601.24
  Q 450.50 598.00 451.41 594.86
  C 452.73 590.24 449.86 585.60 450.37 581.88
  Q 450.88 578.13 451.54 574.40
  C 452.16 570.93 450.38 567.88 450.41 564.63
  C 450.44 561.24 452.58 555.75 451.71 553.00
  Q 449.85 547.10 450.34 544.62
  C 451.53 538.63 451.23 535.16 450.63 530.08
  C 450.22 526.67 450.91 523.69 451.32 520.31
  C 451.73 516.95 450.86 513.70 450.44 510.35
  C 449.83 505.53 452.53 501.67 451.48 496.81
  C 450.87 493.99 448.90 490.43 450.26 487.61
  Q 454.71 478.39 447.44 471.04
  Q 446.44 470.03 443.47 468.45"
/>
<path stroke="#00aef0" vector-effect="non-scaling-stroke" d="
  M 857.05 319.85
  C 852.59 321.72 850.97 324.50 850.97 329.51
  Q 851.04 416.05 850.98 502.32
  A 2.49 2.49 0.0 0 1 849.09 504.74
  Q 845.60 505.60 844.01 508.98"
/>
<path stroke="#80daf4" vector-effect="non-scaling-stroke" d="
  M 844.01 508.98
  L 768.14 465.33"
/>
<path stroke="#00b9e3" vector-effect="non-scaling-stroke" d="
  M 745.66 529.68
  Q 745.64 530.33 745.04 530.41
  Q 744.59 530.47 744.30 530.81
  C 743.24 532.02 742.03 532.24 742.03 534.26
  Q 741.67 623.00 741.80 711.75
  Q 741.81 716.56 737.70 718.91
  Q 737.28 719.15 737.09 719.59
  Q 736.76 720.31 736.94 720.97"
/>
<path stroke="#80deee" vector-effect="non-scaling-stroke" d="
  M 736.94 720.97
  L 585.60 633.59"
/>
<path stroke="#80d3fc" vector-effect="non-scaling-stroke" d="
  M 881.70 804.68
  L 808.62 762.32"
/>
<path stroke="#80face" vector-effect="non-scaling-stroke" d="
  M 376.06 703.33
  L 201.22 804.62"
/>
<path stroke="#80daf4" vector-effect="non-scaling-stroke" d="
  M 813.61 846.71
  Q 811.81 846.48 810.81 845.91
  Q 753.51 813.18 667.73 763.64"
/>
<path stroke="#80deee" vector-effect="non-scaling-stroke" d="
  M 667.73 763.64
  L 621.65 737.16"
/>
<path stroke="#80e4e7" vector-effect="non-scaling-stroke" d="
  M 621.65 737.16
  L 556.54 699.75"
/>
<path stroke="#80e9e2" vector-effect="non-scaling-stroke" d="
  M 556.54 699.75
  C 549.99 694.17 543.39 690.95 534.70 694.42
  Q 519.27 700.59 506.62 711.57"
/>
<path stroke="#80eddd" vector-effect="non-scaling-stroke" d="
  M 506.62 711.57
  L 458.48 738.62"
/>
<path stroke="#80face" vector-effect="non-scaling-stroke" d="
  M 458.48 738.62
  Q 365.02 792.44 271.41 846.17
  Q 269.61 847.20 268.59 846.04"
/>
<path stroke="#00c3d6" vector-effect="non-scaling-stroke" d="
  M 621.65 737.16
  Q 614.38 743.63 616.69 751.03
  Q 617.36 753.20 620.64 754.21
  Q 621.13 754.36 621.36 754.83
  Q 621.99 756.09 622.00 757.75
  C 622.04 775.95 620.99 793.62 620.98 811.00
  Q 620.97 855.00 621.08 899.00
  C 621.09 904.19 621.99 909.66 622.01 914.34
  C 622.02 918.02 622.40 921.64 621.10 925.09
  Q 620.06 927.83 618.62 930.55"
/>
<path stroke="#00ceca" vector-effect="non-scaling-stroke" d="
  M 556.54 699.75
  Q 556.42 700.44 556.91 702.13
  C 557.35 703.69 556.96 705.78 556.04 707.47
  Q 553.94 711.38 555.37 715.77
  A 1.52 1.51 -44.7 0 1 555.36 716.77
  Q 554.03 720.40 555.13 724.03
  C 555.90 726.55 554.22 728.39 554.38 730.87
  C 554.47 732.35 554.82 733.55 554.63 735.05
  C 553.62 743.05 554.41 750.54 554.24 758.22
  Q 554.04 766.68 554.04 766.80
  Q 553.99 821.65 554.06 876.51
  C 554.06 878.63 553.48 881.07 553.65 883.47
  C 553.90 886.87 552.75 888.98 551.47 891.91"
/>
<path stroke="#00d7bf" vector-effect="non-scaling-stroke" d="
  M 510.22 904.67
  Q 510.49 900.48 508.98 897.01
  C 508.39 895.66 509.31 892.02 508.84 889.68
  C 507.96 885.39 509.49 881.67 509.51 877.89
  C 509.54 870.45 509.50 864.99 509.07 855.70
  Q 508.73 848.35 509.38 838.75
  C 510.03 829.17 508.48 817.92 509.12 807.45
  C 509.75 797.23 509.37 788.99 509.04 779.74
  C 508.75 771.71 510.17 761.70 509.50 754.75
  Q 508.86 748.02 508.97 744.66
  C 509.03 743.01 508.67 741.67 508.48 740.09
  C 508.12 736.99 509.88 735.19 508.45 731.87
  C 506.93 728.30 511.39 725.85 508.59 723.04
  A 2.54 2.52 -55.7 0 1 508.07 720.23
  C 509.26 717.52 511.45 711.97 506.62 711.57"
/>
<path stroke="#00e8ab" vector-effect="non-scaling-stroke" d="
  M 466.35 929.61
  Q 466.19 919.54 465.65 909.86
  Q 465.02 898.53 464.97 890.12
  C 464.76 851.10 464.30 814.55 464.91 769.00
  C 464.97 764.72 464.15 759.31 464.53 754.41
  C 465.01 748.25 467.44 739.82 458.48 738.62"
/>
<path stroke="#00b9e3" vector-effect="non-scaling-stroke" d="
  M 667.73 763.64
  Q 667.55 768.89 666.34 773.75
  C 665.67 776.42 666.10 777.27 666.78 779.75
  C 667.31 781.68 665.87 783.53 666.03 785.43
  Q 666.19 787.23 666.93 789.84
  C 667.93 793.35 664.73 797.03 665.43 799.76
  Q 667.94 809.46 667.68 815.25
  Q 667.43 820.78 667.15 826.33
  C 666.97 829.75 665.75 834.55 666.33 839.02
  Q 667.18 845.65 667.20 846.01
  Q 667.54 855.59 666.57 865.10
  C 665.80 872.66 666.08 876.68 666.94 883.75
  Q 667.74 890.27 667.01 905.75
  C 666.70 912.28 666.37 923.70 669.19 932.55"
/>
</g>
<path fill="#00d2c4" d="
  M 563.77 151.35
  L 559.64 157.59
  A 1.91 1.89 -46.6 0 0 559.69 159.76
  Q 560.95 161.47 561.07 163.56
  A 1.45 1.42 -27.9 0 1 560.76 164.53
  C 556.75 169.62 561.56 169.30 560.50 173.84
  Q 559.65 177.45 560.69 181.07
  Q 560.83 181.57 560.69 182.06
  Q 559.49 186.13 560.53 190.25
  Q 560.66 190.74 560.53 191.23
  Q 559.52 195.03 560.33 198.87
  C 560.73 200.75 559.75 202.98 559.83 205.10
  Q 560.31 218.55 560.00 232.00
  C 559.94 234.37 560.64 236.10 560.15 238.64
  C 559.53 241.93 560.08 245.98 560.07 248.34
  Q 560.06 254.76 560.04 261.19
  C 560.03 262.67 560.65 263.50 560.37 265.09
  C 559.71 268.71 560.22 272.31 559.89 275.95
  C 559.60 279.14 560.20 282.20 560.00 285.24
  C 559.75 289.00 560.87 291.33 560.46 294.51
  C 559.90 298.74 560.02 302.71 560.01 306.96
  C 560.01 308.03 560.58 308.96 560.69 310.04
  C 560.86 311.61 559.71 313.04 559.09 314.52
  A 1.43 1.43 0.0 0 0 559.06 315.49
  C 559.90 317.94 562.57 320.72 559.35 322.96
  A 1.80 1.79 -38.0 0 0 559.02 325.62
  L 561.06 327.93
  A 1.19 1.17 -62.6 0 1 561.35 328.87
  C 561.03 331.17 558.18 332.90 559.41 335.28
  Q 562.38 341.08 561.60 346.59
  Q 552.72 341.63 544.01 336.82
  C 541.34 335.35 539.92 335.77 537.47 337.19
  Q 511.26 352.40 484.74 367.64
  Q 484.78 362.49 484.46 357.76
  C 484.32 355.71 485.60 352.56 485.41 349.92
  Q 485.31 348.58 485.29 347.25
  Q 484.71 306.11 485.00 264.97
  C 485.03 261.18 484.72 256.39 484.84 252.08
  C 485.11 242.72 485.01 234.36 484.89 225.49
  C 484.81 219.98 485.27 210.83 484.68 203.49
  C 484.40 200.00 484.96 196.23 484.49 192.48
  C 484.14 189.65 484.92 187.32 484.78 184.49
  Q 484.60 180.88 484.62 178.52
  Q 484.66 175.13 483.79 171.47
  Q 508.37 157.34 532.78 142.80
  C 537.48 140.00 540.91 138.53 545.92 139.59
  A 1.57 1.56 -86.1 0 1 547.16 141.02
  L 547.23 142.19
  Q 547.28 142.83 547.91 142.91
  C 548.76 143.02 549.70 143.13 550.45 143.61
  Q 556.95 147.83 563.77 151.35
  Z"
/>
<path fill="#00c9cf" d="
  M 563.77 151.35
  L 634.70 192.10
  Q 634.50 197.34 634.10 202.20
  C 633.78 206.00 630.69 208.74 631.26 212.50
  Q 632.10 218.07 632.03 222.62
  C 631.96 227.32 634.89 230.60 634.99 234.82
  C 635.06 238.31 633.65 242.28 632.72 245.67
  C 631.30 250.86 631.77 256.44 632.01 261.74
  C 632.14 264.82 634.74 267.61 634.97 269.99
  C 635.40 274.29 631.83 276.12 631.81 280.30
  Q 631.77 288.37 631.85 296.45
  C 631.88 299.13 632.36 301.81 633.61 303.89
  Q 635.44 306.96 634.93 309.98
  Q 634.78 310.89 632.84 314.18
  Q 630.30 318.50 631.25 324.31
  Q 632.35 331.07 632.87 333.46
  Q 632.97 333.94 632.81 334.42
  C 632.19 336.17 631.78 337.48 631.90 339.47
  Q 632.22 344.45 631.10 352.51
  Q 630.44 357.19 631.71 364.13
  C 632.46 368.22 634.78 370.37 631.87 374.96
  A 1.24 1.23 -53.7 0 0 632.11 376.55
  L 634.15 378.32
  Q 634.60 378.70 634.20 379.14
  C 632.80 380.68 629.16 383.52 629.18 385.52
  L 561.60 346.59
  Q 562.38 341.08 559.41 335.28
  C 558.18 332.90 561.03 331.17 561.35 328.87
  A 1.19 1.17 -62.6 0 0 561.06 327.93
  L 559.02 325.62
  A 1.80 1.79 -38.0 0 1 559.35 322.96
  C 562.57 320.72 559.90 317.94 559.06 315.49
  A 1.43 1.43 0.0 0 1 559.09 314.52
  C 559.71 313.04 560.86 311.61 560.69 310.04
  C 560.58 308.96 560.01 308.03 560.01 306.96
  C 560.02 302.71 559.90 298.74 560.46 294.51
  C 560.87 291.33 559.75 289.00 560.00 285.24
  C 560.20 282.20 559.60 279.14 559.89 275.95
  C 560.22 272.31 559.71 268.71 560.37 265.09
  C 560.65 263.50 560.03 262.67 560.04 261.19
  Q 560.06 254.76 560.07 248.34
  C 560.08 245.98 559.53 241.93 560.15 238.64
  C 560.64 236.10 559.94 234.37 560.00 232.00
  Q 560.31 218.55 559.83 205.10
  C 559.75 202.98 560.73 200.75 560.33 198.87
  Q 559.52 195.03 560.53 191.23
  Q 560.66 190.74 560.53 190.25
  Q 559.49 186.13 560.69 182.06
  Q 560.83 181.57 560.69 181.07
  Q 559.65 177.45 560.50 173.84
  C 561.56 169.30 556.75 169.62 560.76 164.53
  A 1.45 1.42 -27.9 0 0 561.07 163.56
  Q 560.95 161.47 559.69 159.76
  A 1.91 1.89 -46.6 0 1 559.64 157.59
  L 563.77 151.35
  Z"
/>
<path fill="#00dbba" d="
  M 483.79 171.47
  Q 484.66 175.13 484.62 178.52
  Q 484.60 180.88 484.78 184.49
  C 484.92 187.32 484.14 189.65 484.49 192.48
  C 484.96 196.23 484.40 200.00 484.68 203.49
  C 485.27 210.83 484.81 219.98 484.89 225.49
  C 485.01 234.36 485.11 242.72 484.84 252.08
  C 484.72 256.39 485.03 261.18 485.00 264.97
  Q 484.71 306.11 485.29 347.25
  Q 485.31 348.58 485.41 349.92
  C 485.60 352.56 484.32 355.71 484.46 357.76
  Q 484.78 362.49 484.74 367.64
  L 412.80 409.21
  L 413.00 401.92
  Q 413.02 401.40 412.66 401.04
  C 409.55 397.94 412.81 396.29 413.58 393.38
  A 0.97 0.96 -54.6 0 0 413.45 392.60
  L 411.37 389.47
  A 1.56 1.55 -33.4 0 1 411.82 387.31
  Q 413.66 386.13 413.17 383.90
  Q 413.07 383.46 412.75 383.16
  C 409.79 380.44 411.65 378.33 412.71 375.43
  A 1.18 1.18 0.0 0 0 412.61 374.42
  L 410.65 371.20
  A 1.60 1.60 0.0 0 1 411.01 369.12
  L 412.55 367.87
  A 1.47 1.44 73.7 0 0 413.08 366.88
  Q 413.26 364.81 411.80 363.47
  A 2.08 2.08 0.0 0 1 411.32 361.05
  Q 411.80 360.00 412.39 359.01
  C 414.23 355.89 412.01 355.32 411.70 352.69
  C 411.49 350.85 412.48 349.32 413.01 347.78
  Q 413.19 347.26 412.88 346.81
  Q 412.12 345.71 411.64 344.47
  C 410.17 340.72 414.35 338.88 410.79 334.60
  A 0.99 0.97 33.6 0 1 410.60 333.71
  Q 411.02 332.22 412.21 331.21
  A 2.56 2.56 0.0 0 0 412.44 327.51
  C 409.20 324.00 414.37 321.55 412.70 318.49
  Q 411.77 316.78 411.69 315.26
  C 411.56 312.50 414.85 311.06 411.60 308.00
  A 1.47 1.46 -70.9 0 1 411.15 307.07
  C 410.86 303.94 415.09 301.46 412.08 298.92
  Q 411.71 298.60 411.65 298.11
  Q 411.37 295.93 411.95 294.97
  Q 415.14 289.62 413.42 283.84
  C 412.93 282.20 411.74 280.63 410.86 279.01
  Q 410.61 278.54 410.80 278.05
  Q 411.35 276.67 412.59 275.82
  A 2.24 2.24 0.0 0 0 412.62 272.13
  Q 411.31 271.20 410.74 269.73
  Q 410.51 269.11 410.88 268.57
  L 413.57 264.69
  A 0.76 0.74 47.8 0 0 413.60 263.90
  Q 412.99 262.82 412.06 262.01
  Q 411.70 261.69 411.62 261.22
  Q 411.26 259.01 411.94 257.98
  C 415.60 252.46 414.41 247.81 410.99 242.57
  A 1.93 1.93 0.0 0 1 411.26 240.12
  L 413.41 238.03
  A 1.20 1.19 -42.7 0 0 413.48 236.39
  L 411.01 233.52
  A 1.92 1.91 52.3 0 1 411.37 230.69
  C 413.25 229.39 413.30 227.36 412.21 225.36
  Q 409.72 220.76 407.28 215.75
  L 483.79 171.47
  Z"
/>
<path fill="#00bddd" d="
  M 634.70 192.10
  L 780.26 275.92
  Q 778.85 276.97 778.82 278.25
  C 778.49 295.07 778.94 317.73 778.51 337.50
  Q 777.80 369.75 778.00 402.00
  C 778.12 421.93 777.17 441.93 777.27 461.82
  A 1.31 1.31 0.0 0 1 775.91 463.14
  Q 771.52 462.98 768.14 465.33
  L 629.18 385.52
  C 629.16 383.52 632.80 380.68 634.20 379.14
  Q 634.60 378.70 634.15 378.32
  L 632.11 376.55
  A 1.24 1.23 -53.7 0 1 631.87 374.96
  C 634.78 370.37 632.46 368.22 631.71 364.13
  Q 630.44 357.19 631.10 352.51
  Q 632.22 344.45 631.90 339.47
  C 631.78 337.48 632.19 336.17 632.81 334.42
  Q 632.97 333.94 632.87 333.46
  Q 632.35 331.07 631.25 324.31
  Q 630.30 318.50 632.84 314.18
  Q 634.78 310.89 634.93 309.98
  Q 635.44 306.96 633.61 303.89
  C 632.36 301.81 631.88 299.13 631.85 296.45
  Q 631.77 288.37 631.81 280.30
  C 631.83 276.12 635.40 274.29 634.97 269.99
  C 634.74 267.61 632.14 264.82 632.01 261.74
  C 631.77 256.44 631.30 250.86 632.72 245.67
  C 633.65 242.28 635.06 238.31 634.99 234.82
  C 634.89 230.60 631.96 227.32 632.03 222.62
  Q 632.10 218.07 631.26 212.50
  C 630.69 208.74 633.78 206.00 634.10 202.20
  Q 634.50 197.34 634.70 192.10
  Z"
/>
<path fill="#00f49c" d="
  M 407.28 215.75
  Q 409.72 220.76 412.21 225.36
  C 413.30 227.36 413.25 229.39 411.37 230.69
  A 1.92 1.91 52.3 0 0 411.01 233.52
  L 413.48 236.39
  A 1.20 1.19 -42.7 0 1 413.41 238.03
  L 411.26 240.12
  A 1.93 1.93 0.0 0 0 410.99 242.57
  C 414.41 247.81 415.60 252.46 411.94 257.98
  Q 411.26 259.01 411.62 261.22
  Q 411.70 261.69 412.06 262.01
  Q 412.99 262.82 413.60 263.90
  A 0.76 0.74 47.8 0 1 413.57 264.69
  L 410.88 268.57
  Q 410.51 269.11 410.74 269.73
  Q 411.31 271.20 412.62 272.13
  A 2.24 2.24 0.0 0 1 412.59 275.82
  Q 411.35 276.67 410.80 278.05
  Q 410.61 278.54 410.86 279.01
  C 411.74 280.63 412.93 282.20 413.42 283.84
  Q 415.14 289.62 411.95 294.97
  Q 411.37 295.93 411.65 298.11
  Q 411.71 298.60 412.08 298.92
  C 415.09 301.46 410.86 303.94 411.15 307.07
  A 1.47 1.46 -70.9 0 0 411.60 308.00
  C 414.85 311.06 411.56 312.50 411.69 315.26
  Q 411.77 316.78 412.70 318.49
  C 414.37 321.55 409.20 324.00 412.44 327.51
  A 2.56 2.56 0.0 0 1 412.21 331.21
  Q 411.02 332.22 410.60 333.71
  A 0.99 0.97 33.6 0 0 410.79 334.60
  C 414.35 338.88 410.17 340.72 411.64 344.47
  Q 412.12 345.71 412.88 346.81
  Q 413.19 347.26 413.01 347.78
  C 412.48 349.32 411.49 350.85 411.70 352.69
  C 412.01 355.32 414.23 355.89 412.39 359.01
  Q 411.80 360.00 411.32 361.05
  A 2.08 2.08 0.0 0 0 411.80 363.47
  Q 413.26 364.81 413.08 366.88
  A 1.47 1.44 73.7 0 1 412.55 367.87
  L 411.01 369.12
  A 1.60 1.60 0.0 0 0 410.65 371.20
  L 412.61 374.42
  A 1.18 1.18 0.0 0 1 412.71 375.43
  C 411.65 378.33 409.79 380.44 412.75 383.16
  Q 413.07 383.46 413.17 383.90
  Q 413.66 386.13 411.82 387.31
  A 1.56 1.55 -33.4 0 0 411.37 389.47
  L 413.45 392.60
  A 0.97 0.96 -54.6 0 1 413.58 393.38
  C 412.81 396.29 409.55 397.94 412.66 401.04
  Q 413.02 401.40 413.00 401.92
  L 412.80 409.21
  L 133.46 569.64
  C 132.80 565.46 133.44 561.40 132.90 557.80
  Q 132.30 553.89 131.71 549.95
  Q 131.63 549.44 132.12 549.27
  Q 132.45 549.15 132.70 548.92
  Q 133.06 548.58 133.06 548.09
  Q 133.35 469.81 133.33 391.52
  C 133.32 386.84 132.99 380.74 133.96 376.24
  C 134.59 373.32 139.41 370.64 141.96 369.18
  Q 200.83 335.40 259.44 301.15
  Q 264.10 298.43 276.81 291.24
  C 285.90 286.10 295.89 280.04 303.89 275.44
  C 339.56 254.94 367.69 238.22 398.68 220.76
  Q 402.89 218.38 407.28 215.75
  Z"
/>
<path fill="#00b4e8" d="
  M 780.26 275.92
  L 857.05 319.85
  C 852.59 321.72 850.97 324.50 850.97 329.51
  Q 851.04 416.05 850.98 502.32
  A 2.49 2.49 0.0 0 1 849.09 504.74
  Q 845.60 505.60 844.01 508.98
  L 768.14 465.33
  Q 771.52 462.98 775.91 463.14
  A 1.31 1.31 0.0 0 0 777.27 461.82
  C 777.17 441.93 778.12 421.93 778.00 402.00
  Q 777.80 369.75 778.51 337.50
  C 778.94 317.73 778.49 295.07 778.82 278.25
  Q 778.85 276.97 780.26 275.92
  Z"
/>
<path fill="#00a7f8" d="
  M 857.05 319.85
  Q 885.29 336.01 913.44 352.35
  Q 930.17 362.06 947.19 371.32
  C 949.96 372.84 949.56 376.19 949.59 379.03
  Q 950.39 462.71 949.76 546.39
  C 949.72 552.11 950.22 561.82 949.79 569.83
  L 844.01 508.98
  Q 845.60 505.60 849.09 504.74
  A 2.49 2.49 0.0 0 0 850.98 502.32
  Q 851.04 416.05 850.97 329.51
  C 850.97 324.50 852.59 321.72 857.05 319.85
  Z"
/>
<path fill="#ffffff" d="
  M 561.60 346.59
  L 629.18 385.52
  L 768.14 465.33
  L 844.01 508.98
  L 949.79 569.83
  Q 949.96 571.53 950.05 574.36
  C 950.28 581.84 951.52 589.56 952.37 597.00
  Q 954.06 611.90 952.43 633.55
  C 952.12 637.74 950.91 642.21 950.33 646.72
  Q 946.87 645.38 944.81 644.19
  Q 883.78 609.04 822.63 573.92
  L 745.66 529.68
  L 600.78 446.70
  L 542.75 413.22
  A 3.56 3.54 -44.9 0 0 539.22 413.22
  L 443.47 468.45
  L 370.95 510.38
  L 133.27 646.89
  C 132.52 642.25 129.89 638.48 129.07 634.28
  Q 127.45 625.98 127.84 617.50
  Q 128.96 592.60 133.46 569.64
  L 412.80 409.21
  L 484.74 367.64
  Q 511.26 352.40 537.47 337.19
  C 539.92 335.77 541.34 335.35 544.01 336.82
  Q 552.72 341.63 561.60 346.59
  Z"
/>
<path fill="#00d2c4" d="
  M 600.78 446.70
  C 600.49 460.24 600.46 471.71 600.09 487.25
  C 599.87 496.28 600.15 505.41 599.77 514.33
  Q 599.47 521.55 599.40 526.99
  Q 598.95 563.92 598.97 611.43
  Q 598.97 613.16 598.59 614.45
  C 597.84 617.00 595.16 618.50 596.30 621.11
  C 596.72 622.06 597.80 622.51 598.43 623.36
  A 1.52 1.51 -33.6 0 1 597.98 625.57
  L 594.80 627.42
  A 1.31 1.31 0.0 0 0 594.60 629.54
  L 597.23 631.84
  Q 597.60 632.17 597.41 632.63
  Q 596.34 635.11 594.12 634.19
  Q 589.22 632.17 585.60 633.59
  Q 564.89 621.92 544.22 609.87
  C 542.12 608.64 540.34 608.06 538.27 609.28
  Q 495.03 634.78 451.60 659.79
  Q 451.03 639.63 451.91 619.57
  C 452.04 616.75 452.72 613.47 452.81 610.34
  C 452.91 607.07 450.62 604.51 450.56 601.24
  Q 450.50 598.00 451.41 594.86
  C 452.73 590.24 449.86 585.60 450.37 581.88
  Q 450.88 578.13 451.54 574.40
  C 452.16 570.93 450.38 567.88 450.41 564.63
  C 450.44 561.24 452.58 555.75 451.71 553.00
  Q 449.85 547.10 450.34 544.62
  C 451.53 538.63 451.23 535.16 450.63 530.08
  C 450.22 526.67 450.91 523.69 451.32 520.31
  C 451.73 516.95 450.86 513.70 450.44 510.35
  C 449.83 505.53 452.53 501.67 451.48 496.81
  C 450.87 493.99 448.90 490.43 450.26 487.61
  Q 454.71 478.39 447.44 471.04
  Q 446.44 470.03 443.47 468.45
  L 539.22 413.22
  A 3.56 3.54 -44.9 0 1 542.75 413.22
  L 600.78 446.70
  Z"
/>
<path fill="#00bddd" d="
  M 600.78 446.70
  L 745.66 529.68
  Q 745.64 530.33 745.04 530.41
  Q 744.59 530.47 744.30 530.81
  C 743.24 532.02 742.03 532.24 742.03 534.26
  Q 741.67 623.00 741.80 711.75
  Q 741.81 716.56 737.70 718.91
  Q 737.28 719.15 737.09 719.59
  Q 736.76 720.31 736.94 720.97
  L 585.60 633.59
  Q 589.22 632.17 594.12 634.19
  Q 596.34 635.11 597.41 632.63
  Q 597.60 632.17 597.23 631.84
  L 594.60 629.54
  A 1.31 1.31 0.0 0 1 594.80 627.42
  L 597.98 625.57
  A 1.52 1.51 -33.6 0 0 598.43 623.36
  C 597.80 622.51 596.72 622.06 596.30 621.11
  C 595.16 618.50 597.84 617.00 598.59 614.45
  Q 598.97 613.16 598.97 611.43
  Q 598.95 563.92 599.40 526.99
  Q 599.47 521.55 599.77 514.33
  C 600.15 505.41 599.87 496.28 600.09 487.25
  C 600.46 471.71 600.49 460.24 600.78 446.70
  Z"
/>
<path fill="#00dbba" d="
  M 443.47 468.45
  Q 446.44 470.03 447.44 471.04
  Q 454.71 478.39 450.26 487.61
  C 448.90 490.43 450.87 493.99 451.48 496.81
  C 452.53 501.67 449.83 505.53 450.44 510.35
  C 450.86 513.70 451.73 516.95 451.32 520.31
  C 450.91 523.69 450.22 526.67 450.63 530.08
  C 451.23 535.16 451.53 538.63 450.34 544.62
  Q 449.85 547.10 451.71 553.00
  C 452.58 555.75 450.44 561.24 450.41 564.63
  C 450.38 567.88 452.16 570.93 451.54 574.40
  Q 450.88 578.13 450.37 581.88
  C 449.86 585.60 452.73 590.24 451.41 594.86
  Q 450.50 598.00 450.56 601.24
  C 450.62 604.51 452.91 607.07 452.81 610.34
  C 452.72 613.47 452.04 616.75 451.91 619.57
  Q 451.03 639.63 451.60 659.79
  L 376.06 703.33
  Q 375.49 697.58 379.36 694.07
  A 1.54 1.54 0.0 0 0 379.04 691.56
  C 375.85 689.89 377.00 687.73 378.79 685.41
  Q 380.84 682.74 380.85 679.19
  Q 380.85 678.69 380.44 678.40
  Q 375.95 675.25 377.04 670.49
  Q 378.10 665.88 377.39 662.65
  C 376.72 659.67 377.13 659.21 378.93 657.08
  A 1.43 1.43 0.0 0 0 378.79 655.08
  Q 375.77 652.41 378.29 648.96
  C 380.01 646.60 377.95 645.56 377.73 643.57
  Q 377.49 641.30 378.72 639.43
  A 2.72 2.71 48.0 0 0 378.86 636.68
  L 377.13 633.40
  A 1.62 1.62 0.0 0 1 377.64 631.32
  C 380.62 629.23 378.09 627.29 377.42 625.01
  C 376.91 623.28 378.05 621.59 378.95 620.16
  A 1.58 1.57 36.6 0 0 378.64 618.13
  Q 374.94 614.96 378.64 611.79
  A 1.22 1.19 72.1 0 0 379.06 610.94
  Q 379.13 609.27 378.06 607.97
  A 1.28 1.26 -65.2 0 1 377.77 607.16
  C 377.74 602.38 378.43 596.77 374.62 593.06
  A 1.78 1.77 46.9 0 1 374.70 590.44
  C 378.26 587.40 376.17 586.24 374.49 583.30
  A 2.08 2.08 0.0 0 1 374.62 581.05
  L 379.16 574.88
  A 1.89 1.88 43.9 0 0 379.11 572.59
  Q 377.18 570.19 377.75 566.54
  Q 378.76 559.97 374.13 555.80
  A 1.15 1.15 0.0 0 1 374.05 554.16
  L 376.19 551.81
  A 2.07 2.06 46.4 0 0 376.25 549.11
  L 374.15 546.59
  A 1.72 1.71 -37.0 0 1 374.51 544.06
  L 377.17 542.28
  A 1.31 1.31 0.0 0 0 377.20 540.13
  L 374.04 537.87
  A 1.53 1.53 0.0 0 1 373.97 535.43
  Q 377.33 532.73 378.67 528.49
  C 379.45 525.99 375.84 521.00 374.17 518.92
  A 1.99 1.99 0.0 0 1 374.41 516.17
  Q 375.40 515.31 375.71 514.09
  A 0.63 0.62 -66.3 0 0 375.46 513.43
  L 370.95 510.38
  L 443.47 468.45
  Z"
/>
<path fill="#00f49c" d="
  M 370.95 510.38
  L 375.46 513.43
  A 0.63 0.62 -66.3 0 1 375.71 514.09
  Q 375.40 515.31 374.41 516.17
  A 1.99 1.99 0.0 0 0 374.17 518.92
  C 375.84 521.00 379.45 525.99 378.67 528.49
  Q 377.33 532.73 373.97 535.43
  A 1.53 1.53 0.0 0 0 374.04 537.87
  L 377.20 540.13
  A 1.31 1.31 0.0 0 1 377.17 542.28
  L 374.51 544.06
  A 1.72 1.71 -37.0 0 0 374.15 546.59
  L 376.25 549.11
  A 2.07 2.06 46.4 0 1 376.19 551.81
  L 374.05 554.16
  A 1.15 1.15 0.0 0 0 374.13 555.80
  Q 378.76 559.97 377.75 566.54
  Q 377.18 570.19 379.11 572.59
  A 1.89 1.88 43.9 0 1 379.16 574.88
  L 374.62 581.05
  A 2.08 2.08 0.0 0 0 374.49 583.30
  C 376.17 586.24 378.26 587.40 374.70 590.44
  A 1.78 1.77 46.9 0 0 374.62 593.06
  C 378.43 596.77 377.74 602.38 377.77 607.16
  A 1.28 1.26 -65.2 0 0 378.06 607.97
  Q 379.13 609.27 379.06 610.94
  A 1.22 1.19 72.1 0 1 378.64 611.79
  Q 374.94 614.96 378.64 618.13
  A 1.58 1.57 36.6 0 1 378.95 620.16
  C 378.05 621.59 376.91 623.28 377.42 625.01
  C 378.09 627.29 380.62 629.23 377.64 631.32
  A 1.62 1.62 0.0 0 0 377.13 633.40
  L 378.86 636.68
  A 2.72 2.71 48.0 0 1 378.72 639.43
  Q 377.49 641.30 377.73 643.57
  C 377.95 645.56 380.01 646.60 378.29 648.96
  Q 375.77 652.41 378.79 655.08
  A 1.43 1.43 0.0 0 1 378.93 657.08
  C 377.13 659.21 376.72 659.67 377.39 662.65
  Q 378.10 665.88 377.04 670.49
  Q 375.95 675.25 380.44 678.40
  Q 380.85 678.69 380.85 679.19
  Q 380.84 682.74 378.79 685.41
  C 377.00 687.73 375.85 689.89 379.04 691.56
  A 1.54 1.54 0.0 0 1 379.36 694.07
  Q 375.49 697.58 376.06 703.33
  L 201.22 804.62
  Q 198.42 806.30 196.22 805.02
  Q 166.14 787.38 136.06 769.73
  C 131.40 767.00 132.84 757.46 132.86 752.75
  Q 133.03 712.32 133.17 671.89
  C 133.19 666.18 132.86 655.25 133.27 646.89
  L 370.95 510.38
  Z"
/>
<path fill="#00b4e8" d="
  M 745.66 529.68
  L 822.63 573.92
  Q 820.77 576.83 818.07 576.11
  A 0.93 0.92 8.6 0 0 816.91 576.96
  Q 816.80 579.33 817.89 581.41
  A 2.46 2.44 43.6 0 1 817.95 583.55
  C 814.98 590.04 815.21 596.04 815.32 603.00
  C 815.38 606.55 816.78 607.46 818.28 609.89
  A 0.80 0.80 0.0 0 1 818.23 610.81
  Q 815.60 614.10 815.39 617.89
  Q 814.82 628.19 815.84 640.17
  C 816.05 642.59 818.27 646.62 817.27 648.76
  Q 815.30 653.00 815.30 658.25
  Q 815.32 703.50 815.19 748.75
  Q 815.18 753.89 818.46 757.27
  A 1.23 1.23 0.0 0 1 817.60 759.36
  C 814.94 759.40 809.25 758.81 808.62 762.32
  L 736.94 720.97
  Q 736.76 720.31 737.09 719.59
  Q 737.28 719.15 737.70 718.91
  Q 741.81 716.56 741.80 711.75
  Q 741.67 623.00 742.03 534.26
  C 742.03 532.24 743.24 532.02 744.30 530.81
  Q 744.59 530.47 745.04 530.41
  Q 745.64 530.33 745.66 529.68
  Z"
/>
<path fill="#00a7f8" d="
  M 822.63 573.92
  Q 883.78 609.04 944.81 644.19
  Q 946.87 645.38 950.33 646.72
  Q 950.18 650.83 949.98 655.24
  Q 949.79 659.62 949.81 663.76
  Q 950.10 713.88 949.88 764.00
  C 949.85 769.72 946.28 770.23 942.16 772.53
  Q 914.80 787.81 887.94 803.95
  Q 884.80 805.84 881.70 804.68
  L 808.62 762.32
  C 809.25 758.81 814.94 759.40 817.60 759.36
  A 1.23 1.23 0.0 0 0 818.46 757.27
  Q 815.18 753.89 815.19 748.75
  Q 815.32 703.50 815.30 658.25
  Q 815.30 653.00 817.27 648.76
  C 818.27 646.62 816.05 642.59 815.84 640.17
  Q 814.82 628.19 815.39 617.89
  Q 815.60 614.10 818.23 610.81
  A 0.80 0.80 0.0 0 0 818.28 609.89
  C 816.78 607.46 815.38 606.55 815.32 603.00
  C 815.21 596.04 814.98 590.04 817.95 583.55
  A 2.46 2.44 43.6 0 0 817.89 581.41
  Q 816.80 579.33 816.91 576.96
  A 0.93 0.92 8.6 0 1 818.07 576.11
  Q 820.77 576.83 822.63 573.92
  Z"
/>
<path fill="#ffffff" d="
  M 585.60 633.59
  L 736.94 720.97
  L 808.62 762.32
  L 881.70 804.68
  C 871.00 812.66 861.24 819.58 849.00 826.12
  Q 837.43 832.30 825.43 840.18
  Q 820.44 843.47 813.61 846.71
  Q 811.81 846.48 810.81 845.91
  Q 753.51 813.18 667.73 763.64
  L 621.65 737.16
  L 556.54 699.75
  C 549.99 694.17 543.39 690.95 534.70 694.42
  Q 519.27 700.59 506.62 711.57
  L 458.48 738.62
  Q 365.02 792.44 271.41 846.17
  Q 269.61 847.20 268.59 846.04
  Q 265.34 843.86 260.92 843.22
  C 259.87 843.07 259.62 842.33 258.79 841.98
  Q 249.88 838.22 241.75 833.01
  Q 241.06 832.58 240.24 831.48
  Q 239.96 831.09 239.48 831.09
  Q 237.97 831.07 237.27 829.82
  Q 237.03 829.39 236.61 829.13
  Q 230.02 824.97 224.29 819.73
  Q 223.95 819.41 223.50 819.31
  Q 222.78 819.15 222.47 818.79
  C 220.59 816.58 218.03 815.82 216.24 813.99
  C 213.47 811.18 211.04 807.59 206.70 806.53
  Q 203.87 805.83 201.22 804.62
  L 376.06 703.33
  L 451.60 659.79
  Q 495.03 634.78 538.27 609.28
  C 540.34 608.06 542.12 608.64 544.22 609.87
  Q 564.89 621.92 585.60 633.59
  Z"
/>
<path fill="#00d2c4" d="
  M 556.54 699.75
  Q 556.42 700.44 556.91 702.13
  C 557.35 703.69 556.96 705.78 556.04 707.47
  Q 553.94 711.38 555.37 715.77
  A 1.52 1.51 -44.7 0 1 555.36 716.77
  Q 554.03 720.40 555.13 724.03
  C 555.90 726.55 554.22 728.39 554.38 730.87
  C 554.47 732.35 554.82 733.55 554.63 735.05
  C 553.62 743.05 554.41 750.54 554.24 758.22
  Q 554.04 766.68 554.04 766.80
  Q 553.99 821.65 554.06 876.51
  C 554.06 878.63 553.48 881.07 553.65 883.47
  C 553.90 886.87 552.75 888.98 551.47 891.91
  L 547.44 888.16
  Q 547.09 887.84 546.62 887.81
  C 543.04 887.53 539.82 887.04 536.56 889.04
  Q 523.58 897.01 510.22 904.67
  Q 510.49 900.48 508.98 897.01
  C 508.39 895.66 509.31 892.02 508.84 889.68
  C 507.96 885.39 509.49 881.67 509.51 877.89
  C 509.54 870.45 509.50 864.99 509.07 855.70
  Q 508.73 848.35 509.38 838.75
  C 510.03 829.17 508.48 817.92 509.12 807.45
  C 509.75 797.23 509.37 788.99 509.04 779.74
  C 508.75 771.71 510.17 761.70 509.50 754.75
  Q 508.86 748.02 508.97 744.66
  C 509.03 743.01 508.67 741.67 508.48 740.09
  C 508.12 736.99 509.88 735.19 508.45 731.87
  C 506.93 728.30 511.39 725.85 508.59 723.04
  A 2.54 2.52 -55.7 0 1 508.07 720.23
  C 509.26 717.52 511.45 711.97 506.62 711.57
  Q 519.27 700.59 534.70 694.42
  C 543.39 690.95 549.99 694.17 556.54 699.75
  Z"
/>
<path fill="#00c9cf" d="
  M 556.54 699.75
  L 621.65 737.16
  Q 614.38 743.63 616.69 751.03
  Q 617.36 753.20 620.64 754.21
  Q 621.13 754.36 621.36 754.83
  Q 621.99 756.09 622.00 757.75
  C 622.04 775.95 620.99 793.62 620.98 811.00
  Q 620.97 855.00 621.08 899.00
  C 621.09 904.19 621.99 909.66 622.01 914.34
  C 622.02 918.02 622.40 921.64 621.10 925.09
  Q 620.06 927.83 618.62 930.55
  L 551.47 891.91
  C 552.75 888.98 553.90 886.87 553.65 883.47
  C 553.48 881.07 554.06 878.63 554.06 876.51
  Q 553.99 821.65 554.04 766.80
  Q 554.04 766.68 554.24 758.22
  C 554.41 750.54 553.62 743.05 554.63 735.05
  C 554.82 733.55 554.47 732.35 554.38 730.87
  C 554.22 728.39 555.90 726.55 555.13 724.03
  Q 554.03 720.40 555.36 716.77
  A 1.52 1.51 -44.7 0 0 555.37 715.77
  Q 553.94 711.38 556.04 707.47
  C 556.96 705.78 557.35 703.69 556.91 702.13
  Q 556.42 700.44 556.54 699.75
  Z"
/>
<path fill="#00dbba" d="
  M 506.62 711.57
  C 511.45 711.97 509.26 717.52 508.07 720.23
  A 2.54 2.52 -55.7 0 0 508.59 723.04
  C 511.39 725.85 506.93 728.30 508.45 731.87
  C 509.88 735.19 508.12 736.99 508.48 740.09
  C 508.67 741.67 509.03 743.01 508.97 744.66
  Q 508.86 748.02 509.50 754.75
  C 510.17 761.70 508.75 771.71 509.04 779.74
  C 509.37 788.99 509.75 797.23 509.12 807.45
  C 508.48 817.92 510.03 829.17 509.38 838.75
  Q 508.73 848.35 509.07 855.70
  C 509.50 864.99 509.54 870.45 509.51 877.89
  C 509.49 881.67 507.96 885.39 508.84 889.68
  C 509.31 892.02 508.39 895.66 508.98 897.01
  Q 510.49 900.48 510.22 904.67
  L 466.35 929.61
  Q 466.19 919.54 465.65 909.86
  Q 465.02 898.53 464.97 890.12
  C 464.76 851.10 464.30 814.55 464.91 769.00
  C 464.97 764.72 464.15 759.31 464.53 754.41
  C 465.01 748.25 467.44 739.82 458.48 738.62
  L 506.62 711.57
  Z"
/>
<path fill="#00bddd" d="
  M 621.65 737.16
  L 667.73 763.64
  Q 667.55 768.89 666.34 773.75
  C 665.67 776.42 666.10 777.27 666.78 779.75
  C 667.31 781.68 665.87 783.53 666.03 785.43
  Q 666.19 787.23 666.93 789.84
  C 667.93 793.35 664.73 797.03 665.43 799.76
  Q 667.94 809.46 667.68 815.25
  Q 667.43 820.78 667.15 826.33
  C 666.97 829.75 665.75 834.55 666.33 839.02
  Q 667.18 845.65 667.20 846.01
  Q 667.54 855.59 666.57 865.10
  C 665.80 872.66 666.08 876.68 666.94 883.75
  Q 667.74 890.27 667.01 905.75
  C 666.70 912.28 666.37 923.70 669.19 932.55
  Q 663.20 935.85 657.26 939.46
  C 653.37 941.81 642.61 940.80 638.00 940.76
  A 8.39 8.34 -29.1 0 1 633.77 939.57
  L 618.62 930.55
  Q 620.06 927.83 621.10 925.09
  C 622.40 921.64 622.02 918.02 622.01 914.34
  C 621.99 909.66 621.09 904.19 621.08 899.00
  Q 620.97 855.00 620.98 811.00
  C 620.99 793.62 622.04 775.95 622.00 757.75
  Q 621.99 756.09 621.36 754.83
  Q 621.13 754.36 620.64 754.21
  Q 617.36 753.20 616.69 751.03
  Q 614.38 743.63 621.65 737.16
  Z"
/>
<path fill="#00f49c" d="
  M 458.48 738.62
  C 467.44 739.82 465.01 748.25 464.53 754.41
  C 464.15 759.31 464.97 764.72 464.91 769.00
  C 464.30 814.55 464.76 851.10 464.97 890.12
  Q 465.02 898.53 465.65 909.86
  Q 466.19 919.54 466.35 929.61
  Q 459.65 933.73 451.33 938.57
  C 448.71 940.10 447.61 940.71 444.41 940.74
  C 437.90 940.81 429.91 941.76 425.64 939.31
  Q 350.76 896.26 275.66 853.61
  C 272.15 851.62 269.33 849.86 268.59 846.04
  Q 269.61 847.20 271.41 846.17
  Q 365.02 792.44 458.48 738.62
  Z"
/>
<path fill="#00b4e8" d="
  M 667.73 763.64
  Q 753.51 813.18 810.81 845.91
  Q 811.81 846.48 813.61 846.71
  Q 813.65 849.54 809.92 851.68
  Q 739.59 892.06 669.19 932.55
  C 666.37 923.70 666.70 912.28 667.01 905.75
  Q 667.74 890.27 666.94 883.75
  C 666.08 876.68 665.80 872.66 666.57 865.10
  Q 667.54 855.59 667.20 846.01
  Q 667.18 845.65 666.33 839.02
  C 665.75 834.55 666.97 829.75 667.15 826.33
  Q 667.43 820.78 667.68 815.25
  Q 667.94 809.46 665.43 799.76
  C 664.73 797.03 667.93 793.35 666.93 789.84
  Q 666.19 787.23 666.03 785.43
  C 665.87 783.53 667.31 781.68 666.78 779.75
  C 666.10 777.27 665.67 776.42 666.34 773.75
  Q 667.55 768.89 667.73 763.64
  Z"
/>
</svg>
